<?xml version="1.0" encoding="iso-8859-1"?>
<!-- Generator: Adobe Illustrator 19.0.0, SVG Export Plug-In . SVG Version: 6.00 Build 0)  -->
<svg version="1.1" id="Layer_1" xmlns="http://www.w3.org/2000/svg" xmlns:xlink="http://www.w3.org/1999/xlink" x="0px" y="0px"
	 viewBox="0 0 512 512" style="enable-background:new 0 0 512 512;" xml:space="preserve">
<g>
	<g>
		<path d="M507.98,252.967c-1.169-1.365-117.188-136.687-141.324-163.987c-13.576-15.358-34.425-21.232-51.878-14.628
			c-17.489,6.622-27.93,24.189-27.93,46.992h33.391c0-4.015,0.62-13.589,6.362-15.763c3.78-1.434,10.162,0.001,15.037,5.515
			c17.223,19.481,81.874,94.718,117.344,136.042H53.018c35.469-41.324,100.12-116.561,117.345-136.043
			c4.873-5.512,11.254-6.949,15.036-5.514c5.742,2.174,6.362,11.748,6.362,15.763h33.391c0-22.802-10.44-40.37-27.93-46.992
			c-17.453-6.609-38.301-0.73-51.877,14.627C121.208,116.28,5.189,251.603,4.02,252.967L0,257.657v71.43
			c0,28.409,14.91,56.903,40.905,78.172c26.064,21.326,59.96,33.071,95.442,33.071c39.007,0,67.604-8.412,87.426-25.717
			c17.496-15.274,24.039-33.948,28.818-47.583c1.016-2.899,2.259-6.449,3.409-9.146c1.149,2.697,2.392,6.245,3.408,9.146
			c4.777,13.635,11.322,32.308,28.818,47.583c19.822,17.306,48.419,25.717,87.426,25.717c35.482,0,69.377-11.745,95.442-33.071
			C497.09,385.989,512,357.495,512,329.086v-71.43L507.98,252.967z M403.074,385.471l-10.479-31.704
			c18.916-6.252,34.804-18.773,42.498-33.494l29.591,15.469C452.893,358.301,430.436,376.426,403.074,385.471z"/>
	</g>
</g>
<g>
</g>
<g>
</g>
<g>
</g>
<g>
</g>
<g>
</g>
<g>
</g>
<g>
</g>
<g>
</g>
<g>
</g>
<g>
</g>
<g>
</g>
<g>
</g>
<g>
</g>
<g>
</g>
<g>
</g>
</svg>
