<?xml version="1.0" encoding="utf-8"?><svg version="1.1" id="Layer_1" xmlns="http://www.w3.org/2000/svg" xmlns:xlink="http://www.w3.org/1999/xlink" x="0px" y="0px" viewBox="0 0 122.88 109.29" style="enable-background:new 0 0 122.88 109.29" xml:space="preserve"><g><path d="M60.49,37.25c-0.76,0.43-1.62,0.51-2.41,0.29c-0.78-0.22-1.48-0.73-1.92-1.5l-0.01-0.02c-0.43-0.76-0.51-1.62-0.29-2.41 c0.22-0.78,0.73-1.48,1.5-1.92l0.01,0c1.19-0.67,2.32-1.37,3.39-2.11c1.06-0.73,2.05-1.48,2.95-2.27c0.85-0.74,1.63-1.52,2.31-2.33 c0.68-0.8,1.26-1.63,1.74-2.49c0.11-0.2,0.22-0.41,0.32-0.62c0.1-0.21,0.2-0.42,0.28-0.62l0.02-0.04c0.55-1.3,0.9-2.65,1.01-3.99 c0.12-1.33,0.02-2.65-0.32-3.9c-0.33-1.23-0.89-2.38-1.69-3.39c-0.75-0.96-1.73-1.79-2.93-2.46l-0.04-0.02 c-0.16-0.09-0.31-0.17-0.46-0.24c-0.17-0.08-0.35-0.17-0.52-0.24c-0.44-0.19-0.88-0.34-1.3-0.44c-0.43-0.1-0.85-0.16-1.24-0.17 c-0.39-0.01-0.79,0.01-1.18,0.08c-0.39,0.07-0.78,0.17-1.16,0.32l-0.04,0.01c-0.88,0.33-1.66,0.78-2.33,1.31 c-0.72,0.57-1.31,1.23-1.77,1.94c-0.25,0.39-0.45,0.79-0.61,1.19c-0.15,0.4-0.26,0.81-0.33,1.21l0,0.02 c-0.05,0.37-0.07,0.73-0.04,1.08c0.03,0.34,0.09,0.65,0.2,0.95c0.13,0.35,0.32,0.68,0.58,0.98c0.25,0.3,0.57,0.58,0.97,0.83 c0.2,0.13,0.44,0.23,0.73,0.29c0.31,0.07,0.67,0.11,1.07,0.1c0.52-0.01,1.11-0.08,1.75-0.23c0.66-0.15,1.39-0.37,2.19-0.66 l0.07-0.02c0.81-0.27,1.66-0.2,2.37,0.13c0.74,0.34,1.35,0.97,1.64,1.79l0.01,0.04c0.28,0.81,0.21,1.67-0.13,2.39 c-0.34,0.74-0.97,1.35-1.79,1.64c-1.12,0.41-2.17,0.72-3.17,0.93c-1.01,0.21-1.96,0.33-2.87,0.34h0c-1.03,0.02-1.98-0.09-2.87-0.32 c-0.9-0.23-1.72-0.59-2.47-1.07c-0.98-0.63-1.8-1.36-2.47-2.18c-0.7-0.85-1.23-1.79-1.6-2.79c-0.31-0.83-0.5-1.69-0.58-2.56 c-0.08-0.88-0.06-1.77,0.08-2.65c0.12-0.84,0.35-1.68,0.67-2.5c0.32-0.82,0.73-1.62,1.22-2.4c0.82-1.28,1.87-2.46,3.14-3.46 c1.2-0.95,2.58-1.75,4.14-2.32l0.05-0.02c0.76-0.28,1.53-0.49,2.3-0.62c0.79-0.13,1.6-0.18,2.41-0.15h0.01 c0.81,0.03,1.62,0.13,2.42,0.32c0.8,0.19,1.61,0.45,2.42,0.8c0.28,0.12,0.56,0.25,0.82,0.38c0.29,0.14,0.54,0.27,0.77,0.39 l0.04,0.02c1.98,1.1,3.59,2.5,4.85,4.1c1.34,1.7,2.28,3.64,2.83,5.69c0.52,1.94,0.69,3.97,0.51,6.01c-0.17,2.05-0.69,4.1-1.53,6.06 c-0.14,0.33-0.28,0.64-0.42,0.92c-0.13,0.27-0.29,0.57-0.46,0.89c-0.68,1.23-1.48,2.38-2.4,3.47c-0.91,1.08-1.93,2.11-3.06,3.09 c-1.08,0.93-2.24,1.82-3.48,2.66C63.2,35.66,61.88,36.47,60.49,37.25L60.49,37.25L60.49,37.25z M41.74,79.36 c-0.55-0.58-0.82-1.33-0.8-2.07c0.02-0.74,0.32-1.48,0.9-2.03c0.58-0.55,1.33-0.82,2.07-0.8c0.74,0.02,1.48,0.32,2.03,0.9 c2.86,3,5.69,5.15,8.49,6.52c2.77,1.35,5.51,1.95,8.23,1.85c2.76-0.1,5.57-0.9,8.4-2.33c2.87-1.45,5.76-3.53,8.68-6.18 c0.59-0.54,1.35-0.79,2.08-0.75c0.74,0.03,1.47,0.35,2.02,0.94l0,0c0.54,0.59,0.79,1.34,0.75,2.08c-0.03,0.74-0.35,1.47-0.94,2.02 l0,0c-3.39,3.08-6.81,5.51-10.26,7.21c-3.48,1.71-6.98,2.68-10.52,2.8c-3.59,0.13-7.16-0.6-10.7-2.27 C48.67,85.58,45.19,82.98,41.74,79.36L41.74,79.36z M45.45,48.15c1.97,0,3.75,0.8,5.04,2.09c1.29,1.29,2.09,3.07,2.09,5.04 c0,1.96-0.8,3.75-2.09,5.04c-1.29,1.29-3.07,2.09-5.04,2.09c-1.97,0-3.75-0.8-5.04-2.09c-1.29-1.29-2.09-3.07-2.09-5.04 s0.8-3.75,2.09-5.04C41.7,48.95,43.49,48.15,45.45,48.15L45.45,48.15z M79.92,48.15c1.97,0,3.75,0.8,5.04,2.09 c1.29,1.29,2.09,3.07,2.09,5.04s-0.8,3.75-2.09,5.04c-1.29,1.29-3.07,2.09-5.04,2.09c-1.97,0-3.75-0.8-5.04-2.09 c-1.29-1.29-2.09-3.07-2.09-5.04c0-1.97,0.8-3.75,2.09-5.04C76.17,48.95,77.95,48.15,79.92,48.15L79.92,48.15z M80.51,30.88 c-0.79-0.35-1.36-0.99-1.65-1.75c-0.29-0.75-0.3-1.62,0.03-2.42l0.06-0.12c0.35-0.74,0.95-1.29,1.65-1.58 c0.73-0.3,1.56-0.32,2.33,0.01l0.06,0.03c3,1.34,5.82,2.95,8.42,4.78c2.62,1.85,5.03,3.94,7.18,6.22c1.88,1.99,3.56,4.14,5.03,6.42 c1.34,2.08,2.5,4.27,3.46,6.54c0.3-0.05,0.62-0.1,0.93-0.13c0.47-0.05,0.93-0.08,1.39-0.08c1.82,0,3.56,0.38,5.16,1.06 c1.65,0.71,3.14,1.74,4.38,3.03l0,0c1.24,1.28,2.24,2.81,2.92,4.51c0.66,1.64,1.02,3.42,1.02,5.29s-0.36,3.66-1.02,5.29 c-0.68,1.7-1.68,3.23-2.92,4.51l-0.01,0.01c-1.25,1.28-2.73,2.31-4.38,3.02c-1.59,0.68-3.33,1.06-5.16,1.06 c-0.22,0-0.47-0.01-0.73-0.02l-0.08,0c-1.32,4.41-3.36,8.54-6,12.28c-2.81,3.98-6.3,7.53-10.32,10.5 c-4.28,3.17-9.17,5.69-14.48,7.41c-5.12,1.65-10.63,2.55-16.36,2.55c-5.72,0-11.23-0.9-16.34-2.55c-5.31-1.71-10.2-4.24-14.49-7.41 c-4.02-2.98-7.52-6.53-10.33-10.51c-2.64-3.74-4.68-7.87-6-12.27l-0.08,0c-0.26,0.02-0.5,0.02-0.73,0.02 c-1.82,0-3.56-0.38-5.16-1.06c-1.65-0.71-3.14-1.74-4.38-3.03C2.69,71.22,1.7,69.7,1.02,68C0.36,66.37,0,64.58,0,62.71 c0-1.87,0.36-3.66,1.02-5.29c0.68-1.7,1.68-3.23,2.92-4.51l0.01-0.01c1.25-1.28,2.73-2.32,4.38-3.02c1.59-0.68,3.33-1.06,5.16-1.06 c0.45,0,0.92,0.03,1.39,0.08c0.31,0.04,0.62,0.08,0.93,0.13c0.96-2.28,2.12-4.46,3.46-6.54c1.47-2.28,3.16-4.43,5.04-6.42 c2.16-2.29,4.57-4.38,7.19-6.23c2.6-1.84,5.42-3.44,8.41-4.78l0.07-0.03c0.77-0.33,1.6-0.31,2.33-0.01 c0.72,0.29,1.33,0.86,1.67,1.63l0.03,0.07c0.33,0.8,0.32,1.67,0.03,2.42L44,29.19c-0.3,0.74-0.87,1.37-1.63,1.71l-0.04,0.02 c-2.59,1.16-5.04,2.55-7.3,4.15c-2.29,1.62-4.39,3.44-6.26,5.43c-1.84,1.95-3.46,4.08-4.83,6.33c-1.35,2.21-2.45,4.56-3.29,7.01 l-0.06,0.17c-0.04,0.11-0.08,0.22-0.13,0.32c-0.35,0.74-0.96,1.28-1.66,1.56c-0.72,0.29-1.55,0.3-2.32-0.02l-0.06-0.03 c-0.25-0.11-0.48-0.2-0.71-0.28c-0.24-0.08-0.47-0.15-0.71-0.2c-0.24-0.05-0.48-0.09-0.73-0.11c-0.24-0.02-0.5-0.04-0.77-0.04 c-0.99,0-1.92,0.2-2.77,0.56c-0.88,0.38-1.68,0.93-2.34,1.62L8.37,57.4c-0.67,0.69-1.21,1.51-1.57,2.43 c-0.35,0.89-0.55,1.87-0.55,2.9c0,1.03,0.2,2,0.55,2.88l0.01,0.04c0.37,0.91,0.9,1.73,1.57,2.42c0.66,0.69,1.46,1.24,2.34,1.61 c0.85,0.36,1.79,0.56,2.77,0.56c0.2,0,0.39-0.01,0.56-0.02c0.18-0.01,0.36-0.03,0.54-0.06l0.04,0c0.16-0.03,0.34-0.06,0.52-0.1 c0.18-0.04,0.35-0.09,0.49-0.14c0.09-0.03,0.2-0.06,0.29-0.08c0.82-0.18,1.64,0,2.31,0.43c0.66,0.43,1.16,1.11,1.36,1.95l0.01,0.05 c0.95,4.34,2.72,8.41,5.17,12.09c2.51,3.76,5.73,7.11,9.49,9.89c3.75,2.78,8.04,4.99,12.72,6.49c4.51,1.45,9.38,2.24,14.46,2.24 c5.08,0,9.95-0.79,14.46-2.24c4.68-1.5,8.97-3.71,12.73-6.49c3.75-2.78,6.97-6.12,9.48-9.88c2.44-3.66,4.22-7.72,5.17-12.05 l0.03-0.14l0.05-0.16c0.26-0.83,0.81-1.47,1.5-1.85c0.7-0.38,1.54-0.49,2.35-0.25l0.04,0.01c0.16,0.05,0.33,0.1,0.5,0.14 c0.19,0.04,0.38,0.08,0.55,0.11c0.18,0.02,0.36,0.05,0.53,0.06c0.17,0.01,0.37,0.02,0.57,0.02c0.99,0,1.92-0.2,2.77-0.56 c0.88-0.38,1.68-0.93,2.34-1.62l0.01-0.01c0.67-0.69,1.21-1.51,1.57-2.43c0.35-0.89,0.55-1.87,0.55-2.9c0-1.03-0.2-2-0.55-2.88 c-0.37-0.92-0.91-1.75-1.58-2.45c-0.66-0.69-1.46-1.24-2.34-1.61c-0.85-0.36-1.79-0.56-2.77-0.56c-0.28,0-0.54,0.01-0.78,0.04 c-0.25,0.02-0.49,0.06-0.72,0.11l-0.03,0.01c-0.22,0.05-0.45,0.12-0.68,0.19c-0.23,0.08-0.47,0.17-0.71,0.28l-0.04,0.02 c-0.07,0.03-0.13,0.05-0.19,0.07l-0.06,0.02c-0.79,0.27-1.62,0.19-2.32-0.16c-0.69-0.34-1.26-0.96-1.55-1.75l-0.03-0.08 c-0.83-2.48-1.95-4.85-3.3-7.08c-1.38-2.27-3.01-4.41-4.87-6.39l-0.03-0.04c-1.88-1.98-3.98-3.8-6.27-5.41 C85.56,33.44,83.11,32.04,80.51,30.88L80.51,30.88z"/></g></svg>